<svg width="200" height="200" viewBox="0 0 200 200" fill="none" xmlns="http://www.w3.org/2000/svg">
<path d="M100 11.1001C50.9883 11.1001 11.1002 50.9882 11.1002 100C11.1002 149.012 50.9883 188.9 100 188.9C149.012 188.9 188.9 149.012 188.9 100C188.9 50.9882 149.012 11.1001 100 11.1001Z" fill="#56ACE0"/>
<path d="M100 33.3333C63.2416 33.3333 33.3338 63.2411 33.3338 99.9998C33.3338 136.758 63.2747 166.666 100 166.666C136.726 166.666 166.667 136.725 166.667 99.9998C166.667 63.2742 136.726 33.3333 100 33.3333Z" fill="white"/>
<path d="M100 115.745C91.3376 115.745 84.2559 108.696 84.2559 100C84.2559 91.3044 91.3044 84.2559 100 84.2559C108.663 84.2559 115.745 91.3044 115.745 100C115.745 108.696 108.663 115.745 100 115.745Z" fill="#FFC10D"/>
<path d="M100 0C44.8288 0 0 44.8288 0 100C0 155.172 44.8288 200.001 100 200.001C155.172 200.001 200.001 155.172 200.001 100C200.001 44.8288 155.171 0 100 0ZM100 188.9C50.9883 188.9 11.1002 149.012 11.1002 99.9997C11.1002 50.9878 50.9883 11.1002 100 11.1002C149.012 11.1002 188.9 50.9883 188.9 100C188.9 149.012 149.012 188.9 100 188.9Z" fill="#194F82"/>
<path d="M100 22.2004C57.1147 22.2004 22.2004 57.1147 22.2004 100C22.2004 142.886 57.1147 177.8 100 177.8C142.886 177.8 177.8 142.886 177.8 100C177.8 57.1147 142.885 22.2004 100 22.2004ZM100 166.667C63.2416 166.667 33.3338 136.759 33.3338 100C33.3338 63.2416 63.2411 33.3333 100 33.3333C136.759 33.3333 166.667 63.2742 166.667 99.9998C166.667 136.725 136.759 166.667 100 166.667Z" fill="#194F82"/>
<path d="M130.83 94.4334H105.567V53.1951C105.567 50.1319 103.097 47.6287 100 47.6287C96.904 47.6287 94.4338 50.0988 94.4338 53.1951V100C94.4338 103.063 96.904 105.567 100 105.567H130.83C133.893 105.567 136.397 103.097 136.397 100C136.397 96.904 133.893 94.4334 130.83 94.4334Z" fill="#194F82"/>
<path d="M113.143 124.572H86.7922C83.729 124.572 81.2258 127.042 81.2258 130.138C81.2258 133.202 83.6959 135.705 86.7922 135.705H113.143C116.206 135.705 118.709 133.234 118.709 130.138C118.742 127.042 116.206 124.572 113.143 124.572Z" fill="#194F82"/>
</svg>
