<svg width="200" height="200" viewBox="0 0 200 200" fill="none" xmlns="http://www.w3.org/2000/svg">
<path d="M92.7078 147.391C90.114 173.078 70.7078 190.547 44.9734 188.547C19.239 186.547 8.58278 164.828 9.89528 144.266C11.2859 122.266 21.8953 112.469 28.6453 98.9531C38.0203 80.2031 34.7703 66.0468 36.7078 58.4843C37.5515 55.1875 41.5359 53.9062 44.114 56.125C59.3328 69.1718 96.5828 109.031 92.7078 147.391Z" fill="#4FC3F7"/>
<path d="M186.098 144.078C194.989 160.734 190.833 183.687 173.458 190.422C147.411 200.516 130.223 181.766 127.098 150.516C125.911 138.578 117.552 120.109 115.63 114.734C114.802 112.391 116.661 110.016 119.114 110.312C133.536 112.109 172.817 119.219 186.098 144.078Z" fill="#4FC3F7"/>
<path d="M167.833 17.9531C189.02 32.6875 195.708 61.5156 181.005 82.7343C170.833 97.3906 142.864 100.703 125.52 89.5781C106.958 77.6718 101.88 65.2812 91.1452 52.0781C80.7702 39.3281 68.9577 32.1718 63.2859 26.7968C60.8171 24.4531 61.6296 20.3437 64.8171 19.1718C83.614 12.2031 136.176 -4.06253 167.833 17.9531Z" fill="#4FC3F7"/>
<path d="M83.6766 148.156C83.0984 149.891 82.2859 151.594 80.9734 152.844C79.6453 154.109 77.7391 154.859 75.9735 154.437C73.3797 153.828 71.9422 151.109 71.036 148.609C68.5504 141.743 67.6321 134.408 68.3484 127.141C68.7547 123.016 70.2703 117.625 74.9422 116.5C78.0672 115.75 80.0516 118.187 81.3328 120.719C85.2703 128.484 86.4266 139.953 83.6766 148.156Z" fill="#B3E5FC"/>
<path d="M179.77 155.062C179.739 156.437 179.52 157.891 178.583 158.891C176.927 160.687 173.942 160.109 171.77 159C166.848 156.5 163.098 152.047 160.692 147.078C159.13 143.812 156.755 137.828 160.255 135.047C162.692 133.109 166.458 133.047 168.958 134.719C175.192 138.906 179.973 147.609 179.77 155.062Z" fill="#B3E5FC"/>
<path d="M167.348 37.5625C163.473 43.6875 154.114 41.5156 146.489 31.2344C142.645 26.0781 136.567 23.7344 133.177 22.2187C126.864 19.3906 132.583 15.5625 135.473 15.2812C143.833 14.4844 148.52 15.1094 156.098 18.8906C162.067 21.8906 171.786 30.5625 167.348 37.5625Z" fill="#B3E5FC"/>
</svg>
