<svg width="200" height="200" viewBox="0 0 200 200" fill="none" xmlns="http://www.w3.org/2000/svg">
<g clip-path="url(#clip0_9_300)">
<path d="M20.6071 64.7466C20.5934 64.7568 20.5798 64.7705 20.5661 64.7807L20.6412 64.7295C20.6276 64.7329 20.6173 64.7397 20.6071 64.7466C24.2675 62.1549 25.746 57.9414 23.9021 55.3156C25.7528 57.9516 30.2464 57.9892 33.9375 55.401C37.6286 52.8093 39.1242 48.5719 37.2735 45.9358C39.1242 48.5719 43.6177 48.6094 47.3088 46.0212C50.9999 43.4296 52.4921 39.1921 50.6448 36.5561C52.3521 38.9907 56.3061 39.1819 59.8094 37.1639C65.0371 40.9677 70.8384 46.1271 77.2031 53.1405C77.2031 53.1405 104.745 78.8759 143.599 85.9611C147.191 86.6167 150.756 87.4874 154.105 88.942C155.608 89.5942 158.947 91.339 158.947 91.339C181.811 103.983 194.018 130.975 186.844 157.311C180.404 180.961 160.238 197.149 137.275 199.696C126.738 200.864 116.136 198.566 106.541 194.059C85.1795 184.027 41.6168 155.068 23.6017 81.0032C23.6017 81.0032 20.8837 74.2902 18.9442 65.5899C19.5145 65.3817 20.071 65.1153 20.6071 64.7466Z" fill="#583E68"/>
<path d="M21.5836 26.1554C23.4685 26.1554 24.9982 24.6291 24.9982 22.7409C24.9982 20.8526 23.4685 19.3263 21.5836 19.3263C15.0209 19.3263 9.61224 17.322 7.46791 14.0987C5.92795 11.7802 5.97234 8.63198 7.60791 4.7394C8.33521 3.0014 7.51913 1.00048 5.77772 0.269763C4.03289 -0.467778 2.03879 0.358541 1.30807 2.09654C-1.89477 9.73488 -0.204567 14.8942 1.77928 17.8786C5.22456 23.0618 12.6273 26.1554 21.5836 26.1554Z" fill="#6A3311"/>
<path d="M60.7485 36.5868C64.1425 34.2035 65.0508 29.6417 62.7733 26.3978C60.4958 23.1506 55.8964 22.4506 52.5023 24.834C45.2157 14.4469 32.0902 15.3655 21.2251 22.9901C10.3601 30.6148 5.44996 42.3472 12.7366 52.7342C9.34254 55.1176 8.43427 59.6794 10.7118 62.9232C12.9893 66.167 17.2438 67.1094 20.6378 64.7295L20.5627 64.7807C24.2538 62.1891 25.7494 57.9516 23.8987 55.3156C25.7494 57.9516 30.243 57.9892 33.9341 55.401C37.6252 52.8093 39.1208 48.5719 37.2701 45.9359C39.1208 48.5719 43.6143 48.6094 47.3054 46.0212C50.9965 43.4296 52.4921 39.1921 50.6414 36.5561C52.4921 39.1921 56.9856 39.2297 60.6768 36.6415" fill="#659C35"/>
<path d="M162.444 171.806C163.594 171.806 164.721 171.222 165.363 170.171C173.5 156.813 174.432 139.037 167.791 123.774C167.04 122.043 165.025 121.247 163.297 122.002C161.57 122.756 160.777 124.767 161.529 126.492C167.296 139.75 166.528 155.126 159.531 166.613C158.551 168.224 159.06 170.324 160.668 171.304C161.225 171.646 161.839 171.806 162.444 171.806Z" fill="#6F58A8"/>
<path d="M157.855 117.628C158.643 117.628 159.436 117.354 160.081 116.801C161.508 115.569 161.669 113.414 160.436 111.987C156.246 107.124 150.978 103.317 145.2 100.965C143.455 100.258 141.461 101.098 140.751 102.846C140.041 104.591 140.881 106.585 142.629 107.295C147.41 109.235 151.78 112.4 155.263 116.443C155.942 117.225 156.899 117.628 157.855 117.628Z" fill="#6F58A8"/>
</g>
<defs>
<clipPath id="clip0_9_300">
<rect width="200" height="200" fill="white"/>
</clipPath>
</defs>
</svg>
