<svg width="200" height="200" viewBox="0 0 200 200" fill="none" xmlns="http://www.w3.org/2000/svg">
<path d="M89.6219 44.4348V12.0969C89.6219 5.41642 84.2063 0.000793457 77.5258 0.000793457H71.2375C64.5571 0.000793457 59.1415 5.41642 59.1415 12.0969V44.8336H31.027C24.3508 44.8336 18.9309 50.2477 18.9309 56.9297V98.5172C18.9309 104.297 20.0836 109.952 22.2473 115.191C24.4219 120.431 27.618 125.25 31.7153 129.336C46.909 144.508 55.0497 165.367 55.0497 186.844V193.952C55.0497 197.292 57.7575 200 61.0977 200H159.357C162.697 200 165.405 197.292 165.405 193.952V171.584C165.405 158.936 168.454 146.469 174.289 135.247L176.217 131.538C179.402 125.413 181.069 118.611 181.069 111.705V44.4348H89.6219Z" fill="#FDD1A7"/>
<path d="M181.068 65.8676V111.705C181.068 118.611 179.402 125.413 176.217 131.537L174.288 135.247C168.454 146.469 165.405 158.937 165.405 171.584V193.952C165.405 197.29 162.7 200 159.357 200H120.206V164.558C120.206 111.662 72.538 104.428 72.538 104.428V65.8672H181.068V65.8676Z" fill="#FFBC8A"/>
<path d="M181.068 65.8676V111.705C181.068 118.611 179.402 125.413 176.217 131.538L174.288 135.247C168.454 146.469 165.405 158.937 165.405 171.584V193.952C165.405 197.29 162.7 200 159.357 200H149.222C152.566 200 155.27 197.29 155.27 193.952V171.584C155.27 158.937 158.324 146.469 164.159 135.247L166.082 131.538C169.267 125.413 170.934 118.611 170.934 111.705V65.8676H181.068Z" fill="#F5A871"/>
<path d="M181.068 65.8676V83.7875C177.075 87.2949 171.841 89.4258 166.12 89.4258H165.918C160.1 89.4258 154.784 87.2402 150.741 83.6512C146.731 87.2406 141.437 89.4258 135.64 89.4258H135.443C129.625 89.4258 124.309 87.2402 120.266 83.6512C116.25 87.2406 110.956 89.4258 105.165 89.4258H104.963C98.2759 89.4258 92.2497 86.541 88.0591 81.952C85.688 83.8422 83.0438 85.3883 80.1864 86.5305V98.4297C85.4095 99.9977 93.1075 102.986 100.783 108.411C112.586 116.751 126.559 132.489 127.77 160.587C127.863 162.755 126.116 164.559 123.947 164.559C121.895 164.559 120.216 162.938 120.127 160.888C117.981 111.325 72.5376 104.429 72.5376 104.429V65.868L181.068 65.8676Z" fill="#F5A871"/>
<path d="M120.113 12.0965V66.7402C120.113 75.0461 113.376 81.7785 105.07 81.7785H104.873C99.5372 81.7785 94.8411 79.0379 92.1208 74.8851C90.5473 72.4906 89.6337 69.6215 89.6337 66.5391V12.0965C89.6341 5.41641 95.0505 0 101.731 0H108.016C114.696 0 120.113 5.41641 120.113 12.0965Z" fill="#FDD1A7"/>
<path d="M120.114 12.0969V66.7363C120.114 75.0461 113.378 81.777 105.074 81.777H104.872C103.074 81.777 101.342 81.4656 99.7415 80.8918C105.543 78.8047 109.69 73.2594 109.69 66.7359V12.0969C109.69 6.11993 105.358 1.159 99.6649 0.181262C100.337 0.0609497 101.025 0.000793457 101.73 0.000793457H108.013C114.694 0.000793457 120.114 5.41525 120.114 12.0969Z" fill="#FFBC8A"/>
<path d="M120.112 12.0969V66.541C120.112 74.9566 126.934 81.7785 135.349 81.7785H135.55C143.856 81.7785 150.59 75.0449 150.59 66.7387V12.0969C150.59 5.41602 145.174 0 138.493 0H132.208C125.527 0 120.112 5.41602 120.112 12.0969Z" fill="#FDD1A7"/>
<path d="M150.589 12.0969V66.7363C150.589 75.0461 143.858 81.777 135.548 81.777H135.351C133.549 81.777 131.822 81.4656 130.221 80.8918C136.018 78.8047 140.165 73.2539 140.165 66.7359V12.0969C140.165 6.11993 135.832 1.159 130.139 0.181262C130.811 0.0609497 131.505 0.000793457 132.21 0.000793457H138.493C145.175 0.000793457 150.589 5.41525 150.589 12.0969Z" fill="#FFBC8A"/>
<path d="M150.589 12.0961V66.541C150.589 74.9566 157.412 81.7785 165.827 81.7785H166.027C174.334 81.7785 181.067 75.0449 181.067 66.7387V12.0969C181.068 5.41602 175.652 0 168.971 0H162.686C156.005 0 150.589 5.41562 150.589 12.0961Z" fill="#FDD1A7"/>
<path d="M181.069 12.0969V66.7363C181.069 75.0461 174.333 81.777 166.029 81.777H165.827C164.029 81.777 162.297 81.4656 160.697 80.8918C166.499 78.8047 170.645 73.2539 170.645 66.7359V12.0969C170.645 6.11993 166.318 1.159 160.62 0.181262C161.292 0.0609497 161.981 0.000793457 162.685 0.000793457H168.974C175.65 0.000793457 181.069 5.41525 181.069 12.0969Z" fill="#FFBC8A"/>
<path d="M59.1415 37.1852V48.5262H89.6337V12.0969C89.6337 5.41486 84.2137 0.000793457 77.5321 0.000793457H71.2493C70.5446 0.000793457 69.8563 0.0609497 69.1841 0.181262C74.877 1.15939 79.2095 6.11993 79.2095 12.0969V37.1848L59.1415 37.1852Z" fill="#FFBC8A"/>
<path d="M97.8391 50.7285V57.5535C97.8391 64.0363 95.7145 70.0363 92.1208 74.8856C90.5473 72.491 89.6337 69.6219 89.6337 66.5395V39.6902C94.3782 41.1188 97.8391 45.525 97.8391 50.7285Z" fill="#FFBC8A"/>
<path d="M56.0907 44.834H86.3102C89.5649 44.834 92.2036 47.4727 92.2036 50.7273V57.5519C92.2036 70.5562 81.6614 81.098 68.6575 81.098H56.0907V44.834Z" fill="#FDD1A7"/>
<path d="M48.0066 87.8574H72.5379V80.7781H48.0066C46.0516 80.7781 44.4668 82.3629 44.4668 84.318C44.4668 86.2727 46.0516 87.8574 48.0066 87.8574Z" fill="#FFBC8A"/>
</svg>
