<svg width="200" height="200" viewBox="0 0 200 200" fill="none" xmlns="http://www.w3.org/2000/svg">
<path d="M167.5 71.8753L92.5 190.625C91.875 192.5 89.375 193.75 87.5 193.75C86.875 193.75 86.25 193.75 85.625 193.125C83.125 191.875 81.25 189.375 81.875 186.25L92.5 106.25H37.5C35 106.25 33.125 105 31.875 103.125C30.625 101.25 31.25 98.7503 32.5 96.8753L95 9.37533C96.875 6.87533 99.375 6.25033 101.875 6.87533C104.375 7.50033 106.25 10.0003 106.25 12.5003V62.5003H162.5C165 62.5003 166.875 63.7503 168.125 65.6253C168.75 67.5003 168.75 70.0003 167.5 71.8753Z" fill="#FFC10A"/>
</svg>
