<svg width="200" height="200" viewBox="0 0 200 200" fill="none" xmlns="http://www.w3.org/2000/svg">
<path d="M149.936 123.083C145.967 89.5991 135.108 62.0366 135.108 62.0366H134.967C133.483 55.9272 118.779 51.1147 100.842 51.1147C100.545 51.1147 100.248 51.1304 99.9357 51.1304C99.6389 51.1304 99.342 51.1147 99.0295 51.1147C81.092 51.1147 66.4045 55.9116 64.9045 62.0366H64.7639C64.7639 62.0366 53.9045 89.5991 49.9357 123.083C45.9826 156.443 44.2951 176.865 52.9826 185.318C58.7951 190.974 83.592 194.005 99.9357 194.005C116.279 194.005 141.076 190.974 146.889 185.318C155.576 176.865 153.889 156.443 149.936 123.083Z" fill="#4FE8D8"/>
<path d="M99.2483 30.521C89.1077 30.521 80.8733 32.2241 80.8733 34.3179V55.771C80.8733 57.8647 89.1077 59.5679 99.2483 59.5679C109.389 59.5679 117.623 57.8647 117.623 55.771V34.3335C117.623 32.2241 109.389 30.521 99.2483 30.521Z" fill="#78909C"/>
<path d="M105.045 33.3647C105.045 33.3647 102.998 34.3335 99.0452 34.3335C95.0764 34.3335 93.0452 33.3647 93.0452 33.3647V15.9741H105.061V33.3647H105.045Z" fill="#78909C"/>
<path d="M98.3889 27.1304C92.7795 24.9429 93.0295 21.8804 93.0295 21.8804V18.9272H105.045V28.146C105.045 28.146 103.217 29.0054 98.3889 27.1304Z" fill="#546E7A"/>
<path d="M83.5452 7.86474L81.9045 11.8179C81.4827 12.8491 81.9983 13.8804 82.8733 14.5835C85.8889 16.9897 91.8108 20.0366 97.8108 20.0366C115.045 20.0366 118.248 15.8179 124.436 15.5522C129.717 15.3179 133.748 16.896 135.858 17.4429C136.545 17.6147 137.28 17.3335 137.67 16.7397L140.42 12.5522C140.998 11.6772 140.639 10.5054 139.686 10.0991C136.717 8.84912 130.467 6.63036 123.795 6.63036C112.186 6.63036 106.889 9.22411 99.7014 8.94286C94.9514 8.77099 89.1389 7.44287 86.2014 6.58349C85.1077 6.27099 83.9827 6.83349 83.5452 7.86474Z" fill="#78909C"/>
<path opacity="0.75" d="M90.467 40.5522L89.4202 40.4116C87.9983 40.1929 86.5452 39.8335 85.3264 39.0679C84.4202 38.4897 83.6233 37.6616 83.217 36.646C82.8108 35.6616 83.1702 34.8179 84.3577 35.146C86.8733 35.8335 89.3577 36.4585 91.9202 36.9116C94.1702 37.3022 96.4827 37.1772 98.7639 37.1929C99.3733 37.1929 100.264 37.5522 99.8733 38.3335C99.7327 38.6304 99.4358 38.8335 99.1545 39.0054C96.4202 40.5991 93.4983 40.896 90.467 40.5522Z" fill="#A7FFEB"/>
<path d="M63.8577 110.083C62.3264 110.115 61.7952 106.052 62.2795 99.9116C63.1233 88.9272 64.9045 80.6929 69.4514 70.646C72.3733 64.1772 82.7327 65.6616 79.9514 72.4741C73.342 88.6929 70.8577 95.1147 68.7639 101.255C66.8889 106.802 65.7795 110.037 63.8577 110.083Z" fill="#A7FFEB"/>
<path d="M79.0139 129.162C78.9826 117.396 91.4514 99.1304 97.4357 91.4116C98.9826 89.4116 100.686 89.2866 102.154 91.3491C107.92 99.4429 120.873 116.74 120.873 129.162C120.873 140.724 111.498 150.099 99.9357 150.099C88.3732 150.099 79.0451 140.709 79.0139 129.162Z" fill="white"/>
</svg>
