<svg width="200" height="200" viewBox="0 0 200 200" fill="none" xmlns="http://www.w3.org/2000/svg">
<g clip-path="url(#clip0_64_237)">
<path d="M5.89308 164.642L41.2504 200L199.999 41.251L164.642 5.89367L5.89308 164.642Z" fill="#F6BB42"/>
<path d="M0.000873145 158.753L35.3527 194.105L194.101 35.3565L158.749 0.0046646L0.000873145 158.753Z" fill="#FFCE54"/>
<path d="M26.4151 144.111L20.525 138.221L14.635 144.117L20.525 150.007C22.1547 151.636 24.7913 151.636 26.4209 150.007C28.0444 148.377 28.0444 145.74 26.4209 144.117C26.4213 144.111 26.4151 144.111 26.4151 144.111Z" fill="#656D78"/>
<path d="M44.0969 126.435L38.2069 120.545L32.311 126.435L38.2069 132.33C39.8303 133.954 42.4731 133.954 44.0969 132.33C45.7266 130.701 45.7266 128.064 44.0969 126.435Z" fill="#656D78"/>
<path d="M61.7728 108.759L55.8828 102.869L49.9869 108.759L55.8828 114.649C55.8828 114.649 55.8828 114.649 55.8828 114.655C57.5125 116.278 60.149 116.278 61.7728 114.655C63.4021 113.025 63.4021 110.389 61.7728 108.759Z" fill="#656D78"/>
<path d="M79.4546 91.0834L73.5587 85.1875L67.6687 91.0834L73.5587 96.9734C75.1884 98.6031 77.8249 98.6031 79.4546 96.9734C81.078 95.35 81.078 92.7072 79.4546 91.0834Z" fill="#656D78"/>
<path d="M97.1243 73.4013L91.2343 67.5112L85.3443 73.4071L91.2343 79.2972C92.864 80.9268 95.5005 80.9268 97.1302 79.2972C98.7536 77.6675 98.7536 75.0309 97.1302 73.4071L97.1243 73.4013Z" fill="#656D78"/>
<path d="M114.806 55.7257L108.916 49.8357L103.02 55.7257L108.916 61.6216C110.54 63.245 113.176 63.245 114.806 61.6216C116.436 59.9919 116.436 57.3554 114.806 55.7257Z" fill="#656D78"/>
<path d="M132.482 38.0437L126.592 32.1599L120.696 38.0496L126.592 43.9458C128.215 45.5693 130.859 45.5693 132.482 43.9458C134.112 42.3162 134.112 39.6792 132.482 38.0496C132.482 38.0496 132.482 38.0496 132.482 38.0437Z" fill="#656D78"/>
<path d="M150.164 20.3739C150.158 20.3739 150.158 20.3739 150.158 20.3739L144.268 14.478L138.378 20.3739L144.268 26.2639C145.898 27.8936 148.534 27.8936 150.164 26.2639C151.787 24.6405 151.787 22.0036 150.164 20.3739Z" fill="#656D78"/>
</g>
<defs>
<clipPath id="clip0_64_237">
<rect width="200" height="200" fill="white" transform="translate(0 0.000488281)"/>
</clipPath>
</defs>
</svg>
