<svg width="200" height="200" viewBox="0 0 200 200" fill="none" xmlns="http://www.w3.org/2000/svg">
<path fill-rule="evenodd" clip-rule="evenodd" d="M41.484 46.0007C80.284 0.0567017 184.912 12.9727 176.092 111.713C170.716 171.933 125.692 185.961 76.116 177.025C15.856 166.165 11.568 82.9807 41.484 46.0007Z" fill="#FCED8D"/>
<path fill-rule="evenodd" clip-rule="evenodd" d="M38.172 43.1205C50.052 29.0565 67.704 20.2045 86.572 17.2485C101.424 14.9205 117.06 16.2485 131.236 21.5725C145.504 26.9285 158.292 36.3205 167.344 50.0845C177.368 65.3245 182.764 85.8685 180.416 112.145C180.088 115.825 179.621 119.333 179.016 122.669C174.588 147.245 162.96 163.38 146.98 172.921C131.156 182.361 111.18 185.201 89.8 183.293C85 182.861 80.128 182.197 75.232 181.293C63.668 179.209 54.032 174.625 46.176 168.277C34.252 158.637 26.508 144.992 22.456 129.909C18.456 115.005 18.056 98.6485 20.816 83.3765C23.576 68.1045 29.496 53.8525 38.116 43.2005L38.172 43.1325V43.1205ZM87.6 24.0005C70.308 26.7125 54.18 34.7685 43.388 47.5405C35.512 57.3085 30.084 70.4405 27.532 84.6005C24.956 98.8965 25.32 114.201 29.064 128.153C32.756 141.917 39.748 154.305 50.448 162.952C57.452 168.617 66.072 172.709 76.424 174.577C81.136 175.424 85.8 176.064 90.372 176.473C110.372 178.26 128.96 175.673 143.448 167.041C157.78 158.489 168.248 143.865 172.272 121.441C172.84 118.281 173.279 114.978 173.588 111.533C175.788 86.9205 170.84 67.8365 161.616 53.8125C153.416 41.3445 141.804 32.8245 128.816 27.9565C115.78 23.0725 101.344 21.8525 87.6 24.0005Z" fill="#2D140A"/>
<path fill-rule="evenodd" clip-rule="evenodd" d="M65.94 45.1287C66.132 44.5822 66.4311 44.0797 66.82 43.6504C67.2088 43.2212 67.6795 42.874 68.2044 42.6292C68.7293 42.3844 69.2978 42.2469 69.8766 42.2248C70.4553 42.2028 71.0326 42.2965 71.5747 42.5007C72.1167 42.7048 72.6124 43.0151 73.0329 43.4135C73.4533 43.8118 73.7899 44.2902 74.0229 44.8204C74.2559 45.3506 74.3806 45.9221 74.3897 46.5012C74.3989 47.0803 74.2922 47.6554 74.076 48.1927C71.992 53.7287 68.144 57.6287 63.828 60.3087C58.727 63.3801 52.9302 65.1073 46.98 65.3287C46.4101 65.3376 45.844 65.2342 45.314 65.0243C44.784 64.8145 44.3006 64.5023 43.8912 64.1056C43.4819 63.7089 43.1547 63.2355 42.9284 62.7124C42.702 62.1892 42.5809 61.6266 42.572 61.0567C42.5631 60.4867 42.6665 59.9206 42.8763 59.3907C43.0862 58.8607 43.3984 58.3772 43.7951 57.9679C44.1918 57.5586 44.6652 57.2314 45.1883 57.0051C45.7115 56.7787 46.2741 56.6576 46.844 56.6487C51.2327 56.4763 55.5059 55.1937 59.264 52.9207C62.104 51.1567 64.62 48.6367 65.94 45.1287Z" fill="#2D140A"/>
<path fill-rule="evenodd" clip-rule="evenodd" d="M122.056 48.1923C121.679 47.1202 121.737 45.9433 122.218 44.9135C122.698 43.8836 123.562 43.0828 124.626 42.6823C125.689 42.2818 126.867 42.3136 127.908 42.7707C128.948 43.2279 129.768 44.0741 130.192 45.1283C131.512 48.6363 134.028 51.1563 136.868 52.9203C140.628 55.1927 144.902 56.4752 149.292 56.6483C149.862 56.6572 150.425 56.7783 150.948 57.0047C151.471 57.2311 151.944 57.5582 152.341 57.9676C152.738 58.3769 153.05 58.8603 153.26 59.3903C153.47 59.9203 153.573 60.4864 153.564 61.0563C153.555 61.6263 153.434 62.1889 153.208 62.712C152.981 63.2351 152.654 63.7086 152.245 64.1052C151.835 64.5019 151.352 64.8141 150.822 65.024C150.292 65.2338 149.726 65.3372 149.156 65.3283C143.204 65.1076 137.406 63.3803 132.304 60.3083C128 57.6283 124.14 53.7283 122.056 48.1923Z" fill="#2D140A"/>
<path fill-rule="evenodd" clip-rule="evenodd" d="M67.764 134.624C67.764 134.604 68.208 128.54 74.344 128.168C77.916 127.952 79.276 130.4 80.676 132.924C81.256 133.972 81.876 135.056 82.176 135.052C82.556 135.052 83.224 134.024 83.908 132.976C85.544 130.472 87.228 127.896 91.228 127.992C95.352 128.088 96.696 130.792 97.996 133.432C98.456 134.364 98.904 135.268 99.096 135.268C99.496 135.268 100.116 134.172 100.736 133.088C102.144 130.628 103.536 128.196 107.088 128.132C110.688 128.068 112.16 130.564 113.604 133.048C115.012 135.468 115.712 136.156 118.292 133.656C119.424 132.56 120.088 131.256 120.992 130.092C123.956 126.316 127.036 129.92 124.112 134.2C124.112 134.228 121.02 140.632 115.164 140.84C111.5 140.968 110.048 138.464 108.588 135.956C107.996 134.94 107.548 133.916 107.176 133.92C106.74 133.92 106.376 134.94 105.772 135.972C104.328 138.496 102.864 141.056 99.096 141.056C95.312 141.056 94.076 138.56 92.8 135.976C92.264 134.892 91.708 133.772 91.112 133.76C90.312 133.74 89.536 134.96 88.768 136.132C87.232 138.476 85.74 140.76 82.268 140.82C78.48 140.884 77.024 138.26 75.616 135.72C75.112 134.816 74.74 133.932 74.684 133.936C74.391 133.952 74.114 134.075 73.9055 134.282C73.6969 134.488 73.5711 134.764 73.552 135.056L67.764 134.624Z" fill="#2D140A"/>
<path fill-rule="evenodd" clip-rule="evenodd" d="M32.432 147.492C33.508 143.584 49.632 118.8 50.104 110.656C47.384 108.455 44.8672 106.013 42.584 103.36C40.256 100.64 38.28 97.7285 37.444 95.1725C36.8441 93.3899 36.6394 91.4981 36.844 89.6285C37.082 87.5579 37.8985 85.5963 39.2 83.9685C40.4891 82.3519 42.223 81.1477 44.188 80.5045C45.7926 79.9872 47.4911 79.8275 49.164 80.0365C49.36 80.0365 49.564 80.0885 49.744 80.1205C49.632 79.5685 49.536 79.0085 49.46 78.4445C48.812 73.6885 49.46 68.7685 53.768 66.2965C54.008 66.1605 54.216 66.0485 54.388 65.9645C57.14 64.6645 59.544 64.1765 61.644 64.2725C63.872 64.3503 66.0085 65.1776 67.708 66.6205C69.1748 67.9004 70.3481 69.4817 71.148 71.2565C71.352 71.6885 71.548 72.1245 71.708 72.5685C72.091 72.0487 72.5008 71.5493 72.936 71.0725C74.1114 69.748 75.5464 68.6792 77.152 67.9325C78.9669 67.1084 81.0036 66.9086 82.944 67.3645C84.808 67.7925 86.744 68.8205 88.728 70.6405C91.3344 73.0884 93.1541 76.2559 93.956 79.7405C94.688 83.1005 94.248 86.4885 92.12 89.0245L91.86 89.3325C94.804 89.6245 97.784 90.9965 99.6 94.8725C100.949 97.5956 101.258 100.718 100.468 103.652C99.6078 106.6 97.7132 109.138 95.132 110.8C91.584 113.152 86.908 113.572 82.76 113.928C79.54 132.516 71.672 160.728 65.732 173.44C54.932 172.168 35.424 159.004 32.412 149.244C32.2349 148.673 32.2419 148.06 32.432 147.492Z" fill="#2D140A"/>
<path fill-rule="evenodd" clip-rule="evenodd" d="M37.692 148.288C41.88 155.408 52.852 166.144 61.632 167.952C68.888 150.852 76.032 134.564 78.084 111.304C77.992 109.74 78.3 108.36 79.88 108.184C80.884 108.072 81.712 108 82.56 107.928C86.12 107.624 90.16 107.276 92.524 105.696C93.9679 104.787 95.0347 103.386 95.528 101.752C95.952 100.11 95.7614 98.3686 94.992 96.8565C93.392 93.4765 88.392 94.8045 86.3 95.3605C83.876 96.0045 82.352 96.3965 81.464 93.5965C80.764 91.3685 81.196 91.0605 82.94 89.8245C83.504 89.4245 84.916 88.4245 88.14 84.5685C89.016 83.5245 89.148 81.8805 88.768 80.1325C88.221 77.7561 86.9789 75.5964 85.2 73.9285C84 72.8125 82.92 72.2125 82 71.9965C81.2572 71.8289 80.4799 71.9104 79.788 72.2285C78.8964 72.6639 78.1019 73.2748 77.452 74.0245C75.603 76.1497 74.2381 78.6514 73.452 81.3565C73.2891 82.0808 72.8604 82.7176 72.2506 83.1409C71.6408 83.5643 70.8943 83.7434 70.1587 83.6429C69.4232 83.5423 68.7522 83.1694 68.2784 82.5979C67.8046 82.0264 67.5625 81.2979 67.6 80.5565C67.5861 77.854 67.0099 75.1841 65.908 72.7165C65.4553 71.6786 64.7857 70.7498 63.944 69.9925C63.2031 69.3594 62.2698 68.9957 61.296 68.9605C60.068 68.9045 58.544 69.2445 56.664 70.1325L56.444 70.2405C54.74 71.2205 54.584 73.9645 54.964 76.7445C55.3958 79.5731 56.2127 82.3294 57.392 84.9365L57.528 85.2205C57.835 85.7526 57.9688 86.367 57.911 86.9785C57.8531 87.5901 57.6064 88.1685 57.2051 88.6336C56.8038 89.0986 56.2677 89.4273 55.6712 89.5741C55.0746 89.7208 54.4473 89.6783 53.876 89.4525C52.796 89.0245 52.148 88.2885 51.352 87.3845C50.556 86.4805 49.44 85.2125 48.112 85.0565C47.2457 84.9426 46.3649 85.0204 45.532 85.2845C44.6203 85.5802 43.8152 86.1365 43.216 86.8845C42.5922 87.686 42.2055 88.6463 42.1 89.6565C41.988 90.7232 42.1095 91.8014 42.456 92.8165C43.048 94.6205 44.648 96.9165 46.58 99.1725C48.9294 101.924 51.5686 104.415 54.452 106.6C54.7928 106.849 55.0762 107.169 55.2832 107.536C55.4902 107.904 55.616 108.312 55.652 108.732C55.868 111.172 47.156 136.304 37.692 148.288Z" fill="#FCED8D"/>
<path fill-rule="evenodd" clip-rule="evenodd" d="M167.284 148.316C166.208 144.408 150.084 119.624 149.612 111.48C152.333 109.279 154.85 106.838 157.132 104.184C159.46 101.464 161.436 98.5523 162.272 95.9963C162.874 94.2142 163.079 92.322 162.872 90.4523C162.637 88.3862 161.826 86.4278 160.532 84.8003C159.244 83.1825 157.51 81.9781 155.544 81.3363C153.94 80.8178 152.241 80.6567 150.568 80.8643C150.372 80.8883 150.168 80.9203 149.988 80.9523C150.1 80.4003 150.196 79.8403 150.272 79.2763C150.92 74.5203 150.272 69.6003 145.964 67.1283C145.724 66.9883 145.516 66.8803 145.344 66.7963C142.592 65.4963 140.188 65.0043 138.088 65.1043C135.86 65.1822 133.723 66.0095 132.024 67.4523C130.557 68.7322 129.384 70.3136 128.584 72.0883C128.38 72.5163 128.184 72.9563 128.024 73.4003C127.641 72.8806 127.231 72.3812 126.796 71.9043C125.621 70.5791 124.186 69.5101 122.58 68.7643C120.77 67.9403 118.737 67.7378 116.8 68.1883C114.936 68.6163 112.996 69.6443 111.016 71.4643C108.408 73.911 106.588 77.079 105.788 80.5643C105.056 83.9203 105.496 87.3123 107.624 89.8483L107.884 90.1563C104.94 90.4483 101.96 91.8203 100.144 95.6963C98.7946 98.4195 98.4859 101.542 99.276 104.476C100.131 107.423 102.02 109.962 104.596 111.628C108.144 113.98 112.82 114.4 116.968 114.756C120.188 133.344 127.292 159.384 133.236 172.088C144.036 170.816 164.304 159.828 167.316 150.088C167.494 149.509 167.482 148.889 167.284 148.316Z" fill="#2D140A"/>
<path fill-rule="evenodd" clip-rule="evenodd" d="M161.6 148.285C157.412 155.409 146.028 165.321 137.248 167.129C129.992 150.029 123.648 135.389 121.62 112.129C121.712 110.565 121.404 109.185 119.824 109.009C118.82 108.897 117.992 108.825 117.144 108.753C113.584 108.449 109.544 108.101 107.18 106.521C105.737 105.61 104.671 104.21 104.176 102.577C103.754 100.934 103.944 99.1933 104.712 97.6807C106.312 94.3007 111.312 95.6287 113.404 96.1847C115.828 96.8287 117.352 97.2207 118.24 94.4207C118.94 92.1967 118.508 91.8887 116.764 90.6527C116.2 90.2527 114.788 89.2527 111.564 85.3967C110.688 84.3487 110.556 82.7087 110.936 80.9607C111.483 78.5876 112.724 76.4309 114.5 74.7647C115.7 73.6487 116.78 73.0487 117.72 72.8327C118.463 72.6648 119.24 72.7463 119.932 73.0647C120.824 73.4988 121.619 74.1098 122.268 74.8607C124.118 76.9853 125.483 79.4873 126.268 82.1927C126.431 82.9169 126.86 83.5537 127.469 83.9771C128.079 84.4005 128.826 84.5796 129.561 84.4791C130.297 84.3785 130.968 84.0056 131.442 83.4341C131.915 82.8626 132.158 82.1341 132.12 81.3927C132.134 78.6902 132.71 76.0203 133.812 73.5527C134.266 72.5145 134.936 71.5846 135.776 70.8247C136.518 70.1947 137.451 69.8326 138.424 69.7967C139.652 69.7367 141.176 70.0807 143.06 70.9687L143.276 71.0767C144.98 72.0567 145.136 74.8007 144.756 77.5807C144.326 80.4098 143.509 83.1663 142.328 85.7727L142.196 86.0567C141.886 86.5885 141.75 87.2038 141.807 87.8166C141.864 88.4294 142.111 89.0092 142.513 89.4751C142.915 89.9411 143.452 90.2699 144.05 90.4157C144.648 90.5616 145.277 90.5171 145.848 90.2887C146.924 89.8607 147.572 89.1247 148.368 88.2207C149.164 87.3167 150.284 86.0487 151.608 85.8927C152.474 85.7787 153.355 85.8566 154.188 86.1207C155.1 86.4164 155.905 86.9726 156.504 87.7207C157.13 88.5212 157.516 89.482 157.62 90.4927C157.732 91.5593 157.61 92.6376 157.264 93.6527C156.672 95.4567 155.072 97.7527 153.14 100.009C150.791 102.76 148.151 105.251 145.268 107.437C144.928 107.685 144.645 108.004 144.438 108.371C144.231 108.738 144.105 109.145 144.068 109.565C143.848 112.001 152.148 136.305 161.6 148.285Z" fill="#FCED8D"/>
<path fill-rule="evenodd" clip-rule="evenodd" d="M51.6 111.224C56.928 112.22 60.212 115.688 60.924 118.548C62.872 126.368 36.804 123.264 35.172 122.052C27.744 116.556 42.24 109.476 51.6 111.224Z" fill="#EAA5AB"/>
<path fill-rule="evenodd" clip-rule="evenodd" d="M42.448 110.873C42.5599 110.514 42.8097 110.215 43.1424 110.04C43.4751 109.866 43.8634 109.831 44.222 109.943C44.5806 110.055 44.88 110.304 45.0544 110.637C45.2288 110.97 45.2639 111.358 45.152 111.717L42.484 120.185C42.4316 120.366 42.3437 120.534 42.2255 120.681C42.1072 120.827 41.9609 120.948 41.7951 121.038C41.6293 121.127 41.4475 121.182 41.2601 121.2C41.0727 121.218 40.8836 121.199 40.7038 121.143C40.524 121.087 40.3572 120.996 40.213 120.875C40.0689 120.754 39.9503 120.605 39.8643 120.438C39.7783 120.27 39.7265 120.088 39.712 119.9C39.6976 119.712 39.7207 119.523 39.78 119.345L42.448 110.873Z" fill="#2D140A"/>
<path fill-rule="evenodd" clip-rule="evenodd" d="M51.12 110.32C51.2733 109.978 51.5562 109.711 51.9065 109.578C52.2568 109.444 52.6459 109.455 52.988 109.608C53.3301 109.762 53.5973 110.045 53.7309 110.395C53.8644 110.745 53.8533 111.134 53.7 111.476L49.3 121.26C49.2243 121.43 49.1161 121.583 48.9814 121.71C48.8467 121.838 48.6881 121.938 48.5149 122.004C48.3416 122.07 48.1569 122.102 47.9715 122.097C47.786 122.092 47.6034 122.05 47.434 121.974C47.2646 121.899 47.1117 121.791 46.9842 121.656C46.8566 121.521 46.7568 121.363 46.6905 121.189C46.6242 121.016 46.5927 120.831 46.5978 120.646C46.6028 120.46 46.6443 120.278 46.72 120.108L51.12 110.32Z" fill="#2D140A"/>
<path fill-rule="evenodd" clip-rule="evenodd" d="M154.988 111.224C160.312 112.22 163.6 115.688 164.312 118.548C166.26 126.368 140.192 123.264 138.56 122.052C131.132 116.556 145.628 109.476 154.988 111.224Z" fill="#EAA5AB"/>
<path fill-rule="evenodd" clip-rule="evenodd" d="M145.836 110.873C145.891 110.695 145.981 110.53 146.1 110.387C146.22 110.245 146.366 110.127 146.53 110.04C146.695 109.954 146.875 109.901 147.061 109.884C147.246 109.867 147.432 109.887 147.61 109.943C147.788 109.998 147.952 110.088 148.095 110.207C148.238 110.326 148.356 110.472 148.442 110.637C148.529 110.802 148.582 110.982 148.599 111.167C148.615 111.352 148.595 111.539 148.54 111.717L145.872 120.185C145.82 120.366 145.732 120.534 145.613 120.681C145.495 120.827 145.349 120.948 145.183 121.038C145.017 121.127 144.835 121.182 144.648 121.2C144.461 121.218 144.272 121.199 144.092 121.143C143.912 121.087 143.745 120.996 143.601 120.875C143.457 120.754 143.338 120.605 143.252 120.438C143.166 120.27 143.115 120.088 143.1 119.9C143.086 119.712 143.109 119.523 143.168 119.345L145.836 110.873Z" fill="#2D140A"/>
<path fill-rule="evenodd" clip-rule="evenodd" d="M154.508 110.32C154.661 109.978 154.944 109.711 155.295 109.578C155.645 109.444 156.034 109.455 156.376 109.608C156.718 109.762 156.985 110.045 157.119 110.395C157.252 110.745 157.241 111.134 157.088 111.476L152.688 121.26C152.618 121.438 152.513 121.6 152.378 121.737C152.244 121.873 152.083 121.98 151.906 122.053C151.729 122.125 151.54 122.161 151.348 122.158C151.157 122.155 150.968 122.114 150.794 122.036C150.619 121.958 150.462 121.845 150.332 121.705C150.202 121.565 150.101 121.399 150.037 121.219C149.973 121.039 149.945 120.848 149.957 120.657C149.968 120.466 150.018 120.279 150.104 120.108L154.508 110.32Z" fill="#2D140A"/>
</svg>
