<svg width="200" height="200" viewBox="0 0 200 200" fill="none" xmlns="http://www.w3.org/2000/svg">
<g clip-path="url(#clip0_63_179)">
<path d="M154.806 93.0611C154.806 58.3834 130.3 37.5723 99.6555 37.5723C69.0111 37.5723 45.0167 58.3834 45.0167 93.0611C45.0167 112.394 44.4444 129.089 66.6667 136.894V152.017C66.6667 157.761 72.0333 162.417 77.7778 162.417C83.5278 162.417 88.8889 157.761 88.8889 152.017C88.8889 157.761 94.25 162.417 100 162.417C105.756 162.417 111.111 157.761 111.111 152.017C111.111 157.761 116.478 162.417 122.222 162.417C127.967 162.417 133.333 157.761 133.333 152.017V136.894C155.556 129.089 154.806 112.394 154.806 93.0611Z" fill="#CCD6DD"/>
<path d="M75.7167 103.467C85.2927 103.467 93.0556 95.7037 93.0556 86.1277C93.0556 76.5517 85.2927 68.7888 75.7167 68.7888C66.1407 68.7888 58.3778 76.5517 58.3778 86.1277C58.3778 95.7037 66.1407 103.467 75.7167 103.467Z" fill="#292F33"/>
<path d="M141.6 86.1279C141.6 95.7056 141.6 103.467 124.261 103.467C106.928 103.467 106.928 95.7056 106.928 86.1279C106.928 83.8513 107.376 81.5969 108.247 79.4936C109.119 77.3903 110.396 75.4792 112.005 73.8694C113.615 72.2596 115.526 70.9826 117.63 70.1114C119.733 69.2402 121.987 68.7917 124.264 68.7917C126.54 68.7917 128.795 69.2402 130.898 70.1114C133.001 70.9826 134.913 72.2596 136.522 73.8694C138.132 75.4792 139.409 77.3903 140.28 79.4936C141.152 81.5969 141.6 83.8513 141.6 86.1279ZM106.594 117.55C105.722 115.428 103.117 113.872 99.9889 113.872C96.8722 113.872 94.2611 115.428 93.3889 117.55C92.5282 117.789 91.7437 118.245 91.1113 118.876C90.4789 119.507 90.0199 120.29 89.7788 121.15C89.5378 122.01 89.5228 122.917 89.7353 123.785C89.9478 124.652 90.3806 125.45 90.9918 126.102C91.6031 126.753 92.372 127.235 93.2243 127.502C94.0766 127.769 94.9834 127.811 95.8569 127.625C96.7304 127.439 97.5411 127.031 98.2104 126.439C98.8798 125.848 99.3852 125.094 99.6778 124.25C99.7833 124.25 99.8833 124.272 99.9889 124.272C100.094 124.272 100.194 124.25 100.306 124.25C100.598 125.094 101.104 125.848 101.773 126.439C102.442 127.031 103.253 127.439 104.126 127.625C105 127.811 105.907 127.769 106.759 127.502C107.611 127.235 108.38 126.753 108.991 126.102C109.603 125.45 110.036 124.652 110.248 123.785C110.461 122.917 110.446 122.01 110.204 121.15C109.963 120.29 109.504 119.507 108.872 118.876C108.24 118.245 107.455 117.789 106.594 117.55Z" fill="#292F33"/>
<path d="M61.1111 150C61.1111 147.961 61.5278 146.039 62.1944 144.233C56.7278 141.75 52.0222 138.222 48.2889 133.289C42.535 138.322 36.7441 143.313 30.9167 148.261C27.6008 145.792 23.5789 144.454 19.4444 144.444C14.2875 144.444 9.34169 146.493 5.69515 150.14C2.04861 153.786 0 158.732 0 163.889C0.00912547 168.597 1.73149 173.141 4.8455 176.672C7.95951 180.203 12.2523 182.48 16.9222 183.078C17.5189 187.748 19.7956 192.042 23.3269 195.156C26.8583 198.27 31.4027 199.992 36.1111 200C41.2681 200 46.2139 197.951 49.8604 194.305C53.507 190.658 55.5556 185.713 55.5556 180.556C55.5556 176.25 54.1111 172.306 51.7444 169.083C55.0778 165.161 58.6667 160.972 62.4722 156.583C61.5735 154.505 61.1103 152.264 61.1111 150ZM154.844 63.9889C159.756 59.7167 164.45 55.6833 168.817 51.9722C172.081 54.3 175.99 55.5525 180 55.5556C185.157 55.5556 190.103 53.5069 193.749 49.8604C197.396 46.2139 199.444 41.2681 199.444 36.1111C199.439 31.497 197.789 27.0359 194.79 23.5291C191.791 20.0223 187.641 17.6994 183.083 16.9778C182.499 12.2963 180.227 7.98882 176.693 4.86314C173.159 1.73745 168.607 0.00831157 163.889 0C158.732 0 153.786 2.0486 150.14 5.69515C146.493 9.34169 144.444 14.2875 144.444 19.4444C144.444 23.75 145.889 27.6944 148.261 30.9167C144.961 34.8056 141.411 38.9444 137.644 43.2889C144.867 48.1278 150.761 54.9278 154.844 63.9889ZM19.4444 55.5556C23.5789 55.5464 27.6008 54.2084 30.9167 51.7389C35.3556 55.5111 40.1444 59.6222 45.1611 63.9833C49.2444 54.9222 55.1333 48.1222 62.3611 43.2833C58.7987 39.1798 55.2579 35.0575 51.7389 30.9167C54.2084 27.6008 55.5464 23.5789 55.5556 19.4444C55.5556 14.2875 53.507 9.34169 49.8604 5.69515C46.2139 2.0486 41.2681 0 36.1111 0C31.4031 0.00912547 26.8593 1.73149 23.3281 4.8455C19.797 7.95951 17.52 12.2523 16.9222 16.9222C12.2523 17.52 7.95951 19.797 4.8455 23.3281C1.73149 26.8593 0.00912547 31.4031 0 36.1111C0 41.2681 2.04861 46.2139 5.69515 49.8604C9.34169 53.5069 14.2875 55.5556 19.4444 55.5556ZM180 144.444C175.822 144.444 171.978 145.789 168.811 148.028C163.522 143.533 157.756 138.578 151.706 133.289C147.972 138.228 143.267 141.75 137.8 144.239C138.472 146.039 138.889 147.961 138.889 150C138.889 152.339 138.4 154.561 137.528 156.583C141.333 160.972 144.922 165.161 148.256 169.083C145.79 172.401 144.454 176.422 144.444 180.556C144.444 191.3 153.144 200 163.889 200C168.607 199.993 173.16 198.264 176.694 195.138C180.228 192.012 182.5 187.704 183.083 183.022C187.641 182.301 191.791 179.978 194.79 176.471C197.789 172.964 199.439 168.503 199.444 163.889C199.444 153.144 190.744 144.444 180 144.444Z" fill="#AAB8C2"/>
</g>
<defs>
<clipPath id="clip0_63_179">
<rect width="200" height="200" fill="white"/>
</clipPath>
</defs>
</svg>
