<svg width="200" height="200" viewBox="0 0 200 200" fill="none" xmlns="http://www.w3.org/2000/svg">
<g clip-path="url(#clip0_63_187)">
<path d="M34.2389 61.0593C41.0535 58.9195 47.341 55.2652 52.5424 50.3934C61.9907 56.023 75.8826 53.5537 85.6599 43.7433C96.8855 32.5177 98.5319 15.9584 89.3468 6.83953C80.1622 -2.34503 63.6029 -0.633491 52.4431 10.5264C43.1276 19.8428 40.4282 32.8793 45.0367 42.2288C41.0204 46.0145 36.1811 48.8789 30.9141 50.5248C21.4001 53.4875 14.4541 61.7834 13.2686 71.6595C12.6102 77.0584 8.85712 81.7001 3.722 83.4779C0.858059 84.4653 -0.689506 87.6256 0.29841 90.49C1.15443 93.1564 4.24905 94.9341 7.31058 93.9136C16.4294 90.7533 23.0464 82.5561 24.2314 73.009C24.9556 67.413 28.9062 62.7383 34.2389 61.0593ZM60.3118 18.3289C67.1263 11.5143 76.8705 9.83536 81.6441 14.642C86.4177 19.4156 84.7056 29.1929 77.9573 35.9744C71.1427 42.789 61.3985 44.4679 56.6249 39.6613C51.8182 34.8877 53.4972 25.0773 60.3118 18.3289Z" fill="#194F82"/>
<path d="M81.6441 14.6089C76.8706 9.83535 67.0932 11.5474 60.3118 18.2958C53.4972 25.1104 51.8182 34.8546 56.6249 39.6281C61.3985 44.4017 71.1758 42.6897 77.9573 35.9413C84.7387 29.1267 86.4177 19.382 81.6441 14.6089Z" fill="#FFC10D"/>
<path d="M194.1 111.691C184.915 102.506 168.356 104.218 157.196 115.377C147.88 124.694 145.18 137.697 149.789 147.08C145.773 150.866 140.934 153.763 135.667 155.376C126.153 158.339 119.207 166.635 118.054 176.511C117.396 181.91 113.643 186.551 108.508 188.329C105.644 189.316 104.096 192.477 105.084 195.341C106.105 198.37 109.397 199.753 112.096 198.765C121.182 195.604 127.799 187.44 128.985 177.86C129.643 172.264 133.594 167.589 138.993 165.91C145.807 163.77 152.095 160.083 157.329 155.211C166.778 160.873 180.703 158.371 190.513 148.561C201.573 137.434 203.219 120.875 194.1 111.691ZM182.611 140.858C175.796 147.673 166.052 149.352 161.278 144.545C156.505 139.771 158.217 129.994 164.965 123.213C171.78 116.398 181.524 114.719 186.298 119.526C191.071 124.299 189.359 134.043 182.611 140.858Z" fill="#194F82"/>
<path d="M186.298 119.492C181.524 114.719 171.747 116.431 164.965 123.179C158.151 129.994 156.472 139.738 161.278 144.512C166.052 149.285 175.829 147.573 182.611 140.825C189.359 134.043 191.071 124.299 186.298 119.492Z" fill="#FFC10D"/>
<path d="M158.48 91.5762C175.138 74.9186 177.771 50.5578 164.405 37.1919C151.073 23.8591 126.679 26.4929 110.021 43.1174C95.4378 57.7009 91.619 78.3422 99.9475 92.2015C92.9354 99.1149 83.6189 105.04 74.2037 107.937C60.2456 112.25 50.04 124.464 48.2627 138.981C47.0447 148.857 40.1975 157.351 30.7822 160.577C27.9183 161.564 26.3707 164.725 27.3587 167.589C28.4123 170.486 31.7371 172.001 34.3708 171.013C47.7036 166.404 57.4809 154.355 59.1599 140.331C60.4111 130.093 67.5872 121.533 77.4307 118.439C88.5249 114.982 99.1251 108.497 107.388 100.3C121.247 110.308 143.172 106.884 158.48 91.5762ZM117.824 50.8868C130.136 38.5745 147.583 35.9082 156.637 44.9613C165.69 54.0145 163.056 71.4293 150.711 83.7742C138.399 96.0865 120.951 98.7528 111.898 89.6997C102.845 80.6465 105.511 63.2648 117.824 50.8868Z" fill="#194F82"/>
<path d="M117.824 50.8869C105.511 63.1992 102.845 80.6466 111.898 89.6998C120.951 98.753 138.366 96.1192 150.711 83.7744C163.023 71.4621 165.69 54.0147 156.637 44.9615C147.583 35.9083 130.136 38.5747 117.824 50.8869Z" fill="#56ACE0"/>
</g>
<defs>
<clipPath id="clip0_63_187">
<rect width="200" height="200" fill="white"/>
</clipPath>
</defs>
</svg>
