<svg width="200" height="200" viewBox="0 0 200 200" fill="none" xmlns="http://www.w3.org/2000/svg">
<g clip-path="url(#clip0_9_256)">
<path d="M91.5125 104.348L45.8601 104.348L45.8601 130.435H91.5125V104.348Z" fill="#9BD4E3"/>
<path d="M45.8601 130.435C20.6878 130.435 0.207764 101.178 0.207764 65.2176C0.207764 29.257 20.6878 0 45.8601 0C71.0324 0 91.5125 29.2566 91.5125 65.2176C91.5125 101.179 71.032 130.435 45.8601 130.435Z" fill="#C6DCE5"/>
<path d="M91.5121 65.2176C91.5121 29.2566 71.032 0 45.8601 0L45.8601 130.435C71.032 130.435 91.5121 101.178 91.5121 65.2176Z" fill="#AAC9D6"/>
<path d="M154.555 0L100.208 0L45.8601 0C54.5453 0 62.6976 6.09531 68.6785 15.6645C74.6593 25.2336 78.4691 38.277 78.4691 52.1738L78.4691 122.826V193.479C78.4691 195.28 79.1988 196.91 80.3792 198.09C81.5597 199.27 83.1898 200 84.991 200L139.339 200H193.686C195.487 200 197.118 199.271 198.298 198.09C199.478 196.91 200.208 195.28 200.208 193.479V122.826L200.208 52.1738C200.208 34.1934 195.088 21.15 186.821 12.6016C178.555 4.05312 167.142 0 154.555 0Z" fill="#E3EDED"/>
<path d="M102.382 160.87H84.9901C81.3874 160.87 78.4683 157.95 78.4683 154.348C78.4683 150.745 81.3874 147.826 84.9901 147.826H102.382C105.984 147.826 108.903 150.745 108.903 154.348C108.903 157.95 105.984 160.87 102.382 160.87Z" fill="#AAC9D6"/>
<path d="M150.208 160.87H128.469C124.866 160.87 121.947 157.95 121.947 154.348C121.947 150.745 124.866 147.826 128.469 147.826H150.208C153.81 147.826 156.73 150.745 156.73 154.348C156.73 157.95 153.81 160.87 150.208 160.87Z" fill="#AAC9D6"/>
<path d="M193.686 160.87H176.294C172.692 160.87 169.773 157.95 169.773 154.348C169.773 150.745 172.692 147.826 176.294 147.826H193.686C197.289 147.826 200.208 150.745 200.208 154.348C200.208 157.95 197.289 160.87 193.686 160.87Z" fill="#AAC9D6"/>
<path d="M45.8602 91.3047C56.6657 91.3047 65.4254 79.6251 65.4254 65.2176C65.4254 50.8101 56.6657 39.1305 45.8602 39.1305C35.0546 39.1305 26.2949 50.8101 26.2949 65.2176C26.2949 79.6251 35.0546 91.3047 45.8602 91.3047Z" fill="#57565C"/>
<path d="M65.4253 65.2176C65.4253 50.8102 56.6664 39.1305 45.8601 39.1305L45.8601 91.3043C56.666 91.3043 65.4253 79.6246 65.4253 65.2176Z" fill="#3E3D42"/>
</g>
<defs>
<clipPath id="clip0_9_256">
<rect width="200" height="200" fill="white"/>
</clipPath>
</defs>
</svg>
