<svg width="200" height="200" viewBox="0 0 200 200" fill="none" xmlns="http://www.w3.org/2000/svg">
<g clip-path="url(#clip0_67_382)">
<path d="M174.759 200.001H25.2383C17.266 200.001 11.0313 192.956 11.8281 184.835L22.966 61.2627C23.6316 53.9076 29.6625 48.2764 36.8832 48.2764H163.114C170.338 48.2764 176.369 53.9072 177.031 61.2627L188.173 184.835C188.966 192.956 182.735 200.001 174.759 200.001Z" fill="#546A79"/>
<path d="M72.4129 48.2763V22.1005C72.4129 18.0384 75.5027 13.797 79.3094 13.7935H120.689C124.499 13.7899 127.554 18.0071 127.558 22.0692L127.572 48.2763H141.379V14.7454C141.379 6.604 135.189 0.000488281 127.554 0.000488281H72.4442C64.8098 0.000488281 58.6199 6.604 58.6199 14.7454V48.2763H72.4129Z" fill="#BDC3C7"/>
<path d="M177.41 65.456L177.031 61.263C176.952 60.3528 176.782 59.47 176.545 58.6216H144.827C142.924 58.6216 141.379 60.1665 141.379 62.07C141.379 63.9735 142.924 65.5185 144.827 65.5185H177.107C177.214 65.5181 177.304 65.4661 177.41 65.456Z" fill="#648293"/>
<path d="M178.654 79.2489L178.037 72.4146H151.723C149.819 72.4146 148.274 73.9595 148.274 75.863C148.274 77.7665 149.819 79.3114 151.723 79.3114H178.347C178.457 79.311 178.547 79.2595 178.654 79.2489Z" fill="#648293"/>
<path d="M179.892 92.9863L179.281 86.207H158.619C156.716 86.207 155.171 87.752 155.171 89.6555C155.171 91.559 156.716 93.1039 158.619 93.1039H179.309C179.516 93.1035 179.695 93.0207 179.892 92.9863Z" fill="#648293"/>
<path d="M186.114 162.008L185.497 155.173H158.621C156.714 155.173 155.173 156.718 155.173 158.622C155.173 160.525 156.714 162.07 158.621 162.07H185.808C185.918 162.069 186.007 162.018 186.114 162.008Z" fill="#648293"/>
<path d="M187.358 175.801L186.741 168.966H151.724C149.82 168.966 148.275 170.511 148.275 172.415C148.275 174.318 149.82 175.863 151.724 175.863H187.055C187.162 175.863 187.251 175.811 187.358 175.801Z" fill="#648293"/>
<path d="M141.379 186.207C141.379 188.111 142.923 189.656 144.827 189.656H187.748C188.137 188.121 188.337 186.514 188.172 184.835L187.986 182.759H144.827C142.923 182.759 141.379 184.304 141.379 186.207Z" fill="#648293"/>
<path d="M22.893 65.5175H55.1723C57.0758 65.5175 58.6207 63.9726 58.6207 62.069C58.6207 60.1655 57.0758 58.6206 55.1723 58.6206H23.4551C23.2137 59.469 23.048 60.3515 22.9652 61.262L22.5894 65.455C22.693 65.4659 22.7859 65.5175 22.893 65.5175Z" fill="#648293"/>
<path d="M21.3449 79.2488C21.452 79.259 21.5414 79.3109 21.652 79.3109H48.2762C50.1797 79.3109 51.7246 77.766 51.7246 75.8625C51.7246 73.959 50.1797 72.4141 48.2762 72.4141H21.9625L21.3449 79.2488Z" fill="#648293"/>
<path d="M20.1067 92.9862C20.3031 93.0206 20.4824 93.1034 20.6895 93.1034H41.3793C43.2828 93.1034 44.8278 91.5585 44.8278 89.655C44.8278 87.7515 43.2828 86.2065 41.3793 86.2065H20.7168L20.1067 92.9862Z" fill="#648293"/>
<path d="M13.884 162.008C13.991 162.018 14.0805 162.07 14.191 162.07H41.3774C43.2844 162.07 44.8258 160.525 44.8258 158.621C44.8258 156.718 43.2844 155.173 41.3774 155.173H14.5012L13.884 162.008Z" fill="#648293"/>
<path d="M12.6406 175.801C12.7477 175.811 12.8371 175.863 12.9441 175.863H48.275C50.1785 175.863 51.7234 174.318 51.7234 172.414C51.7234 170.511 50.1785 168.966 48.275 168.966H13.2578L12.6406 175.801Z" fill="#648293"/>
<path d="M58.6199 186.207C58.6199 184.304 57.075 182.759 55.1715 182.759H12.0129L11.8266 184.835C11.6609 186.514 11.8609 188.121 12.2508 189.655H55.1715C57.075 189.655 58.6199 188.111 58.6199 186.207Z" fill="#648293"/>
</g>
<defs>
<clipPath id="clip0_67_382">
<rect width="200" height="200" fill="white" transform="translate(0 0.000488281)"/>
</clipPath>
</defs>
</svg>
